<svg xmlns="http://www.w3.org/2000/svg" viewBox="0 0 300 400" width="300" height="400">
  <!-- 赛博朋克风格的人物轮廓 -->
  <style>
    .outline { fill: none; stroke: #00ffff; stroke-width: 2; }
    .detail { fill: none; stroke: #00ffff; stroke-width: 1; opacity: 0.7; }
    .highlight { fill: none; stroke: #ff00ff; stroke-width: 1.5; opacity: 0.8; }
    .scan-line { stroke: #00ffff; stroke-width: 0.5; opacity: 0.3; }
    .data-point { fill: #00ffff; }
    .data-text { fill: #00ffff; font-family: monospace; font-size: 8px; }
    .warning-text { fill: #ff3333; font-family: monospace; font-size: 10px; }
    
    @keyframes pulse {
      0% { opacity: 0.7; }
      50% { opacity: 1; }
      100% { opacity: 0.7; }
    }
    
    @keyframes scan {
      0% { transform: translateY(0); }
      100% { transform: translateY(400px); }
    }
    
    @keyframes blink {
      0%, 100% { opacity: 0; }
      50% { opacity: 1; }
    }
    
    .pulse { animation: pulse 3s infinite; }
    .scan { animation: scan 10s infinite linear; }
    .blink { animation: blink 0.5s infinite; }
  </style>
  
  <!-- 背景网格 -->
  <g>
    <rect x="0" y="0" width="300" height="400" fill="rgba(0,0,0,0.1)" />
    <!-- 水平线 -->
    <g>
      <line x1="0" y1="40" x2="300" y2="40" class="scan-line" />
      <line x1="0" y1="80" x2="300" y2="80" class="scan-line" />
      <line x1="0" y1="120" x2="300" y2="120" class="scan-line" />
      <line x1="0" y1="160" x2="300" y2="160" class="scan-line" />
      <line x1="0" y1="200" x2="300" y2="200" class="scan-line" />
      <line x1="0" y1="240" x2="300" y2="240" class="scan-line" />
      <line x1="0" y1="280" x2="300" y2="280" class="scan-line" />
      <line x1="0" y1="320" x2="300" y2="320" class="scan-line" />
      <line x1="0" y1="360" x2="300" y2="360" class="scan-line" />
    </g>
    <!-- 垂直线 -->
    <g>
      <line x1="30" y1="0" x2="30" y2="400" class="scan-line" />
      <line x1="60" y1="0" x2="60" y2="400" class="scan-line" />
      <line x1="90" y1="0" x2="90" y2="400" class="scan-line" />
      <line x1="120" y1="0" x2="120" y2="400" class="scan-line" />
      <line x1="150" y1="0" x2="150" y2="400" class="scan-line" />
      <line x1="180" y1="0" x2="180" y2="400" class="scan-line" />
      <line x1="210" y1="0" x2="210" y2="400" class="scan-line" />
      <line x1="240" y1="0" x2="240" y2="400" class="scan-line" />
      <line x1="270" y1="0" x2="270" y2="400" class="scan-line" />
    </g>
  </g>
  
  <!-- 扫描线效果 -->
  <line x1="0" y1="0" x2="300" y2="0" stroke="#00ffff" stroke-width="3" opacity="0.5" class="scan" />
  
  <!-- 人物轮廓 -->
  <g class="pulse">
    <!-- 头部 -->
    <circle cx="150" cy="100" r="40" class="outline" />
    
    <!-- 面部特征 -->
    <path d="M130,90 Q150,100 170,90" class="detail" />
    <circle cx="135" cy="85" r="5" class="detail" />
    <circle cx="165" cy="85" r="5" class="detail" />
    
    <!-- 颈部 -->
    <path d="M130,140 L130,160 Q150,170 170,160 L170,140" class="outline" />
    
    <!-- 身体 -->
    <path d="M110,170 L110,300 Q150,310 190,300 L190,170" class="outline" />
    
    <!-- 肩膀和手臂 -->
    <path d="M110,170 L80,220 L90,280" class="outline" />
    <path d="M190,170 L220,220 L210,280" class="outline" />
    
    <!-- 装饰细节 -->
    <path d="M130,180 L170,180" class="detail" />
    <path d="M120,200 L180,200" class="detail" />
    <path d="M120,220 L180,220" class="detail" />
    
    <!-- 高亮细节 -->
    <path d="M140,140 L160,140" class="highlight" />
    <path d="M130,250 L170,250" class="highlight" />
    <circle cx="150" cy="270" r="10" class="highlight" />
  </g>
  
  <!-- 数据点 -->
  <g>
    <circle cx="135" cy="85" r="2" class="data-point blink" />
    <circle cx="165" cy="85" r="2" class="data-point blink" />
    <circle cx="150" cy="270" r="2" class="data-point blink" />
    <circle cx="90" cy="280" r="2" class="data-point blink" />
    <circle cx="210" cy="280" r="2" class="data-point blink" />
  </g>
  
  <!-- 数据文本 -->
  <g>
    <text x="60" y="30" class="data-text">ID: CN-3091-LDZ</text>
    <text x="60" y="45" class="data-text">STATUS: WANTED</text>
    <text x="180" y="30" class="data-text">THREAT: EXTREME</text>
    <text x="180" y="45" class="data-text">NEURAL: ENHANCED</text>
    
    <text x="30" y="330" class="data-text">LAST SEEN: NEO-TOKYO</text>
    <text x="30" y="345" class="data-text">DATE: 2091.03.15</text>
    <text x="180" y="330" class="data-text">REWARD: ₿50,000.00</text>
    <text x="180" y="345" class="data-text">PRIORITY: ALPHA</text>
    
    <text x="100" y="380" class="warning-text">APPROACH WITH CAUTION</text>
  </g>
  
  <!-- 名字标识 -->
  <g>
    <text x="90" y="130" class="data-text" style="font-size: 12px;">刘德洲 / LIU DEZHOU</text>
  </g>
</svg>